<svg width="24" height="24" viewBox="0 0 24 24" fill="none" xmlns="http://www.w3.org/2000/svg">
<path d="M8.02988 12.07C8.1707 12.0175 8.32215 11.9903 8.47526 11.9898C8.62837 11.9893 8.78004 12.0156 8.92129 12.0672C9.06255 12.1188 9.19054 12.1945 9.29768 12.29C9.40482 12.3855 9.48895 12.4988 9.54508 12.6231C9.60122 12.7475 9.62823 12.8804 9.62451 13.014C9.62079 13.1477 9.58643 13.2793 9.52345 13.4011C9.46046 13.523 9.37014 13.6325 9.25781 13.7234C9.14549 13.8142 9.01345 13.8845 8.86949 13.93C8.10381 14.1934 7.44665 14.6519 6.98352 15.2458C6.52039 15.8397 6.27273 16.5415 6.27276 17.26V19C6.27276 19.2652 6.39344 19.5196 6.60826 19.7071C6.82307 19.8946 7.11442 20 7.41821 20H16.5818C16.8856 20 17.1769 19.8946 17.3917 19.7071C17.6065 19.5196 17.7272 19.2652 17.7272 19V17.353C17.7273 16.6115 17.4693 15.8874 16.9874 15.2768C16.5054 14.6662 15.8223 14.1979 15.0286 13.934C14.8837 13.8901 14.7504 13.8213 14.6366 13.7316C14.5228 13.6419 14.4307 13.5332 14.3659 13.4119C14.3011 13.2905 14.2649 13.1591 14.2594 13.0253C14.2538 12.8916 14.2791 12.7582 14.3337 12.6331C14.3884 12.508 14.4712 12.3938 14.5773 12.2972C14.6834 12.2006 14.8107 12.1235 14.9515 12.0706C15.0924 12.0177 15.2439 11.9901 15.3973 11.9893C15.5506 11.9885 15.7025 12.0146 15.8441 12.066C17.0716 12.4742 18.128 13.1983 18.8734 14.1425C19.6188 15.0867 20.018 16.2063 20.0181 17.353V19C20.0181 19.7956 19.6561 20.5587 19.0116 21.1213C18.3672 21.6839 17.4931 22 16.5818 22H7.41821C6.50684 22 5.63279 21.6839 4.98835 21.1213C4.34391 20.5587 3.98187 19.7956 3.98187 19L3.98187 17.26C3.98203 16.1402 4.3682 15.0463 5.09016 14.1206C5.81212 13.195 6.83644 12.4805 8.02988 12.07ZM12 2C13.2152 2 14.3806 2.42143 15.2398 3.17157C16.0991 3.92172 16.5818 4.93913 16.5818 6V8C16.5818 9.06087 16.0991 10.0783 15.2398 10.8284C14.3806 11.5786 13.2152 12 12 12C10.7848 12 9.61943 11.5786 8.76018 10.8284C7.90093 10.0783 7.41821 9.06087 7.41821 8V6C7.41821 4.93913 7.90093 3.92172 8.76018 3.17157C9.61943 2.42143 10.7848 2 12 2ZM12 4C11.3924 4 10.8097 4.21071 10.3801 4.58579C9.95046 4.96086 9.7091 5.46957 9.7091 6V8C9.7091 8.53043 9.95046 9.03914 10.3801 9.41421C10.8097 9.78929 11.3924 10 12 10C12.6076 10 13.1903 9.78929 13.6199 9.41421C14.0495 9.03914 14.2909 8.53043 14.2909 8V6C14.2909 5.46957 14.0495 4.96086 13.6199 4.58579C13.1903 4.21071 12.6076 4 12 4Z" fill="#181725"/>
</svg>
